<svg width="52" height="52" viewBox="0 0 52 52" fill="none" xmlns="http://www.w3.org/2000/svg">
<circle cx="26" cy="26" r="26" fill="#F50E30"/>
<g clip-path="url(#clip0_322_510)">
<g clip-path="url(#clip1_322_510)">
<path d="M18.7148 15.1372L19.6894 16.1083V12.6987H16.7402V16.1083L17.7148 15.1372C17.8529 14.9998 18.0342 14.9304 18.2148 14.9304C18.3954 14.9304 18.5768 14.9998 18.7148 15.1372Z" fill="white"/>
<path d="M26.0498 13.4067C26.0498 13.0165 25.7381 12.6985 25.3415 12.6985H21.1061V17.8121C21.1061 18.1025 20.9361 18.3568 20.667 18.4701C20.582 18.5055 20.4899 18.5204 20.3979 18.5204C20.2137 18.5204 20.0366 18.4488 19.895 18.315L18.2164 16.6364L16.5308 18.315C16.3324 18.5204 16.0279 18.5771 15.7588 18.4701C15.4967 18.3568 15.3267 18.1025 15.3267 17.8121V12.6985H11.0843C10.6947 12.6985 10.376 13.0165 10.376 13.4067V21.3315H16.2687L15.9429 21.0056C15.6667 20.7301 15.6667 20.284 15.9429 20.007C16.2191 19.7315 16.6653 19.7315 16.9416 20.007L18.4785 21.5369C18.5422 21.6006 18.5918 21.6792 18.6343 21.7713C18.7051 21.9413 18.7051 22.1396 18.6343 22.3088C18.5918 22.3939 18.5422 22.4725 18.4785 22.5426L16.9416 24.0731C16.807 24.2148 16.6228 24.2785 16.4458 24.2785C16.2616 24.2785 16.0775 24.2148 15.9429 24.0731C15.6667 23.7969 15.6667 23.3507 15.9429 23.0738L16.2687 22.748H10.376V27.4232H26.0498V13.4067Z" fill="white"/>
<path d="M40.7178 28.8394H9.7102C9.32067 28.8394 9.00195 29.1573 9.00195 29.5476V35.1846C9.00195 35.5742 9.32067 35.8929 9.7102 35.8929H11.9979C11.9979 33.2298 14.1581 31.0696 16.8211 31.0696C19.4771 31.0696 21.6444 33.2298 21.6444 35.8929H30.363C30.363 33.2298 32.5233 31.0696 35.1863 31.0696C37.8423 31.0696 40.0096 33.2298 40.0096 35.8929H42.2902C42.6868 35.8929 42.9984 35.5742 42.9984 35.1846V31.1263C42.9984 29.8656 41.9785 28.8394 40.7178 28.8394Z" fill="white"/>
<path d="M41.2423 20.8993C41.2423 20.7435 41.1927 20.5948 41.1006 20.4673L37.6656 15.9769C37.531 15.7999 37.3256 15.6936 37.106 15.6936H28.012C27.6224 15.6936 27.3037 16.0123 27.3037 16.4019V27.4224H41.2423V20.8993ZM38.0905 22.8541C38.0905 23.2436 37.7718 23.5624 37.3822 23.5624H31.1637C30.7742 23.5624 30.4555 23.2436 30.4555 22.8541V18.8524C30.4555 18.4558 30.7742 18.1442 31.1637 18.1442H35.5408C35.7674 18.1442 35.9728 18.2434 36.1074 18.4204L37.9418 20.8285C38.0409 20.9489 38.0905 21.1047 38.0905 21.2605V22.8541Z" fill="white"/>
<path d="M35.1857 32.4851C33.3039 32.4851 31.7783 34.0107 31.7783 35.8932C31.7783 37.7751 33.3039 39.3014 35.1857 39.3014C37.0683 39.3014 38.5939 37.7751 38.5939 35.8932C38.5939 34.0107 37.0683 32.4851 35.1857 32.4851Z" fill="white"/>
<path d="M17.6084 39.1991C19.4398 38.7662 20.5735 36.9306 20.1406 35.0992C19.7077 33.2678 17.8721 32.1341 16.0407 32.567C14.2093 32.9999 13.0756 34.8355 13.5085 36.6669C13.9414 38.4983 15.777 39.632 17.6084 39.1991Z" fill="white"/>
</g>
</g>
<defs>
<clipPath id="clip0_322_510">
<rect width="36" height="36" fill="white" transform="translate(8 8)"/>
</clipPath>
<clipPath id="clip1_322_510">
<rect width="36" height="36" fill="white" transform="translate(8 8)"/>
</clipPath>
</defs>
</svg>
