<svg width="52" height="52" viewBox="0 0 52 52" fill="none" xmlns="http://www.w3.org/2000/svg">
<circle cx="26" cy="26" r="26" fill="#F50E30"/>
<path d="M39.7165 21.5H36.3325L35.4325 19.16C34.4965 16.748 32.1565 15.2 29.5645 15.2H22.4365C19.8445 15.2 17.5405 16.748 16.5685 19.16L15.6325 21.5H12.2485C11.8885 21.5 11.5645 21.788 11.5645 22.184C11.5645 22.22 11.5645 22.292 11.6005 22.328L11.9245 23.696C11.9965 23.984 12.2845 24.2 12.5725 24.2H13.7605C12.9685 24.884 12.5005 25.856 12.5005 26.9V29.6C12.5005 30.464 12.8245 31.2919 13.4005 31.9759V35C13.4005 36.008 14.1925 36.8 15.2005 36.8H17.0005C18.0085 36.8 18.8005 36.008 18.8005 35V33.2H33.2005V35C33.2005 36.008 33.9925 36.8 35.0005 36.8H36.8005C37.8085 36.8 38.6005 36.008 38.6005 35V31.94C39.1765 31.292 39.5005 30.464 39.5005 29.564V26.864C39.5005 25.82 39.0325 24.848 38.2405 24.164H39.3565C39.6805 24.164 39.9325 23.948 40.0045 23.66L40.3285 22.292C40.4005 21.932 40.1845 21.572 39.8245 21.464C39.8245 21.5 39.7885 21.5 39.7165 21.5ZM19.9165 20.492C20.3125 19.448 21.3205 18.8 22.4365 18.8H29.5645C30.6805 18.8 31.6885 19.484 32.0845 20.492L33.2005 23.3H18.8005L19.9165 20.492ZM17.0005 29.6C16.0645 29.672 15.2725 28.9519 15.2005 28.016C15.2005 27.944 15.2005 27.872 15.2005 27.8C15.1285 26.864 15.8485 26.072 16.7845 26H17.0005C18.0805 26 19.7005 27.62 19.7005 28.7C19.7005 29.78 18.0805 29.6 17.0005 29.6ZM35.0005 29.6C33.9205 29.6 32.3005 29.78 32.3005 28.7C32.3005 27.62 33.9205 26 35.0005 26C35.9365 25.928 36.7285 26.648 36.8005 27.584V27.8C36.8725 28.736 36.1525 29.528 35.2165 29.6C35.1445 29.6 35.0725 29.6 35.0005 29.6Z" fill="white"/>
</svg>
